# xmcd CD database file
#
# Track frame offsets:
#	150
#	18975
#	37575
#	52500
#	69375
#	90600
#	108450
#	129075
#	147750
#	166950
#	180600
#	202575
#	223575
#	243300
#
# Disc length: 3504 seconds
#
# Revision: 0
# Processed by: cddbd v1.5.2PL0 Copyright (c) Steve Scherf et al.
# Submitted via: CDex 1.51
#
DISCID=a40dae0e
DTITLE=Various Artist - Salsa Nueva
DYEAR=1988
DGENRE=Salsa
TTITLE0=Orquesta Royal - Fin De Semana
TTITLE1=Orquesta Unidad - Pregonero
TTITLE2=Luis Cruz Y Grupo Sass - Otra Negra
TTITLE3=Luis Cruz Y Grupo Sass - Sonando
TTITLE4=Orquesta Guillo Rivera - No Hablemos De Amor (Guacho)
TTITLE5=Dr. Derek David, Cantante De Los Platters - One Of The Million You
TTITLE6=Orquesta Los Rivales - El Amor Es Lo Mas Grande
TTITLE7=Orquesta Los Timidos - Eres Tu
TTITLE8=Super Combo Las Platinos - Veneno
TTITLE9=Orquesta Unidad - Sigue Regando
TTITLE10=Orquesta Guillo Rivera, Canta Guillo - Dos Mares Mas Que Tu
TTITLE11=Orquesta Los Rivales - Gitana
TTITLE12=Orquesta Los Platinos - Aqui Estas Otra Vez
TTITLE13=Orquesta Son Becuadro - Mi Gran Ilusion
EXTD=YEAR: 1988
EXTT0=
EXTT1=
EXTT2=
EXTT3=
EXTT4=
EXTT5=
EXTT6=
EXTT7=
EXTT8=
EXTT9=
EXTT10=
EXTT11=
EXTT12=
EXTT13=
PLAYORDER=
